0
SECTION
2
HEADER
9
$INSUNITS
70
4
9
$ACADVER
1
AC1014
9
$HANDSEED
5
FFFF
0
ENDSEC
0
SECTION
2
TABLES
0
TABLE
2
VPORT
5
8
100
AcDbSymbolTable
0
ENDTAB
0
TABLE
2
LTYPE
5
5
100
AcDbSymbolTable
0
LTYPE
5
14
100
AcDbSymbolTableRecord
100
AcDbLinetypeTableRecord
2
BYBLOCK
70
0
0
LTYPE
5
15
100
AcDbSymbolTableRecord
100
AcDbLinetypeTableRecord
2
BYLAYER
70
0
0
ENDTAB
0
TABLE
2
LAYER
5
2
100
AcDbSymbolTable
70
2
0
LAYER
5
50
100
AcDbSymbolTableRecord
100
AcDbLayerTableRecord
2
0
70
0
6
CONTINUOUS
0
ENDTAB
0
TABLE
2
STYLE
5
3
100
AcDbSymbolTable
70
1
0
STYLE
5
11
100
AcDbSymbolTableRecord
100
AcDbTextStyleTableRecord
2
STANDARD
70
0
0
ENDTAB
0
TABLE
2
VIEW
5
6
100
AcDbSymbolTable
70
0
0
ENDTAB
0
TABLE
2
UCS
5
7
100
AcDbSymbolTable
70
0
0
ENDTAB
0
TABLE
2
APPID
5
9
100
AcDbSymbolTable
70
2
0
APPID
5
12
100
AcDbSymbolTableRecord
100
AcDbRegAppTableRecord
2
ACAD
70
0
0
ENDTAB
0
TABLE
2
DIMSTYLE
5
A
100
AcDbSymbolTable
70
1
0
ENDTAB
0
TABLE
2
BLOCK_RECORD
5
1
100
AcDbSymbolTable
70
1
0
BLOCK_RECORD
5
1F
100
AcDbSymbolTableRecord
100
AcDbBlockTableRecord
2
*MODEL_SPACE
0
BLOCK_RECORD
5
1B
100
AcDbSymbolTableRecord
100
AcDbBlockTableRecord
2
*PAPER_SPACE
0
ENDTAB
0
ENDSEC
0
SECTION
2
BLOCKS
0
BLOCK
5
20
100
AcDbEntity
100
AcDbBlockBegin
2
*MODEL_SPACE
0
ENDBLK
5
21
100
AcDbEntity
100
AcDbBlockEnd
0
BLOCK
5
1C
100
AcDbEntity
100
AcDbBlockBegin
2
*PAPER_SPACE
0
ENDBLK
5
1D
100
AcDbEntity
100
AcDbBlockEnd
0
ENDSEC
0
SECTION
2
ENTITIES
0
LWPOLYLINE
5
100
100
AcDbEntity
8
0
100
AcDbPolyline
90
55
70
1
43
0.0
10
112.8497194041838
20
35.721442307674572
10
130.378629546328
20
39.987423877118296
42
-0.059752816160481989
10
130.85156219902808
20
40.044144508110826
10
137.76629850019611
20
40.044144508110833
42
-0.36225923502455881
10
139.73377800726774
20
38.403344159075786
10
137.2075601780605
20
38.403344159075786
10
137.2075601780605
20
37.543015961577069
42
0.36051614207539534
10
138.83623406797528
20
35.577789023035649
42
-0.36051614207538929
10
142.90791879276208
20
30.664721676682039
10
142.9079187927621
20
20.959287979535262
42
-0.41421356237309609
10
132.90791879276208
20
10.959287979535251
10
114.72541701872991
20
10.959287979535254
42
0.089941859602318389
10
111.21388923096731
20
10.32246973552887
10
74.609929544214538
20
-3.4053233301021244
42
-0.061539001977926812
10
72.225561521011457
20
-3.9784140575481173
42
0.26969522037405802
10
70.612103258986039
20
-5.1792317942813781
10
58.724997025120075
20
-32.974325373881598
42
-0.30022886395717768
10
49.530545950433691
20
-39.042141574108513
10
14.602838970698413
20
-39.042141574108527
42
0.31645999262061669
10
5.1915517194652239
20
-45.661657544450101
10
-10.239999952376845
20
-88.623187385083142
42
-0.31645999262061164
10
-14.004514852870118
20
-91.270993773219757
10
-45.478485814094718
20
-91.270993773219757
42
-0.52056705055174513
10
-49.237256297238368
20
-85.902913199917094
10
-22.341399844754687
20
-12.007154919825101
42
0.082461683627095231
10
-21.860534959373151
20
-9.4306929654228675
42
0.41137732200314703
10
-26.711275570252631
20
-4.3330796468069464
42
-0.40555367743365167
10
-31.56301252383912
20
0.6647216766820252
10
-31.563012523839141
20
5.5647216766820309
10
-13.979635500115101
20
5.5647216766820318
42
-0.32046505340852516
10
-9.2499057703853627
20
2.186343298303659
10
3.171289043013088
20
-34.042141574108513
10
46.811514678536597
20
-34.04214157410852
42
0.30022886395717657
10
51.408740215879796
20
-31.008233473995052
10
59.962124790623825
20
-11.008233473995055
42
0.51649296445763571
10
55.704170944203817
20
-4.0536746975550999
10
46.03517094420382
20
-4.053674697555099
42
-0.41421356237309592
10
41.03517094420382
20
0.94632530244489921
10
41.03517094420382
20
11.176263162966942
42
-0.30618005138550319
10
44.169760204260406
20
15.815254731325723
10
54.083992562589138
20
19.80192192978841
42
-0.09587434924782072
10
54.830156858566497
20
19.946325302444897
10
61.443101692740484
20
19.946325302444897
42
-0.99999999999999989
10
61.443101692740484
20
15.946325302444901
10
59.44310169274047
20
15.946325302444901
10
59.44310169274047
20
14.946325302444903
42
0.41421356237309404
10
61.443101692740484
20
12.946325302444901
10
65.035170944203827
20
12.946325302444897
42
0.41421356237309309
10
67.035170944203827
20
14.946325302444903
10
67.035170944203827
20
25.768096394680811
10
37.035170944203813
20
25.768096394680811
10
-0.80859293963408518
20
20.564721676682037
10
-31.563012523839141
20
20.564721676682034
10
-31.563012523839138
20
35.664721676682035
10
112.37678675148372
20
35.664721676682035
42
0.05975281616046349
0
CIRCLE
5
101
100
AcDbEntity
8
0
100
AcDbCircle
10
-24.00451485287013
20
0.72900622678025329
30
0
40
2.5499999999999989
0
CIRCLE
5
102
100
AcDbEntity
8
0
100
AcDbCircle
10
129.00000192224979
20
21.000000312924385
30
0
40
2.500000000000004
0
CIRCLE
5
103
100
AcDbEntity
8
0
100
AcDbCircle
10
-19.004514852870127
20
-71.270993773219743
30
0
40
2.4999999999999991
0
ENDSEC
0
SECTION
2
OBJECTS
0
DICTIONARY
5
C
100
AcDbDictionary
3
ACAD_GROUP
350
D
3
ACAD_MLINESTYLE
350
17
0
DICTIONARY
5
D
100
AcDbDictionary
0
DICTIONARY
5
1A
330
C
100
AcDbDictionary
0
DICTIONARY
5
17
100
AcDbDictionary
0
ENDSEC
0
EOF
