0
SECTION
2
HEADER
9
$INSUNITS
70
4
9
$ACADVER
1
AC1014
9
$HANDSEED
5
FFFF
0
ENDSEC
0
SECTION
2
TABLES
0
TABLE
2
VPORT
5
8
100
AcDbSymbolTable
0
ENDTAB
0
TABLE
2
LTYPE
5
5
100
AcDbSymbolTable
0
LTYPE
5
14
100
AcDbSymbolTableRecord
100
AcDbLinetypeTableRecord
2
BYBLOCK
70
0
0
LTYPE
5
15
100
AcDbSymbolTableRecord
100
AcDbLinetypeTableRecord
2
BYLAYER
70
0
0
ENDTAB
0
TABLE
2
LAYER
5
2
100
AcDbSymbolTable
70
2
0
LAYER
5
50
100
AcDbSymbolTableRecord
100
AcDbLayerTableRecord
2
0
70
0
6
CONTINUOUS
0
ENDTAB
0
TABLE
2
STYLE
5
3
100
AcDbSymbolTable
70
1
0
STYLE
5
11
100
AcDbSymbolTableRecord
100
AcDbTextStyleTableRecord
2
STANDARD
70
0
0
ENDTAB
0
TABLE
2
VIEW
5
6
100
AcDbSymbolTable
70
0
0
ENDTAB
0
TABLE
2
UCS
5
7
100
AcDbSymbolTable
70
0
0
ENDTAB
0
TABLE
2
APPID
5
9
100
AcDbSymbolTable
70
2
0
APPID
5
12
100
AcDbSymbolTableRecord
100
AcDbRegAppTableRecord
2
ACAD
70
0
0
ENDTAB
0
TABLE
2
DIMSTYLE
5
A
100
AcDbSymbolTable
70
1
0
ENDTAB
0
TABLE
2
BLOCK_RECORD
5
1
100
AcDbSymbolTable
70
1
0
BLOCK_RECORD
5
1F
100
AcDbSymbolTableRecord
100
AcDbBlockTableRecord
2
*MODEL_SPACE
0
BLOCK_RECORD
5
1B
100
AcDbSymbolTableRecord
100
AcDbBlockTableRecord
2
*PAPER_SPACE
0
ENDTAB
0
ENDSEC
0
SECTION
2
BLOCKS
0
BLOCK
5
20
100
AcDbEntity
100
AcDbBlockBegin
2
*MODEL_SPACE
0
ENDBLK
5
21
100
AcDbEntity
100
AcDbBlockEnd
0
BLOCK
5
1C
100
AcDbEntity
100
AcDbBlockBegin
2
*PAPER_SPACE
0
ENDBLK
5
1D
100
AcDbEntity
100
AcDbBlockEnd
0
ENDSEC
0
SECTION
2
ENTITIES
0
LWPOLYLINE
5
100
100
AcDbEntity
8
0
100
AcDbPolyline
90
43
70
1
43
0.0
10
-58.014937244270399
20
7.4480188937498548
42
-0.71613698871665121
10
-58.319792624695232
20
8.3443308883021601
10
-55.588355160109444
20
10.445436630291251
42
0.53091586459731333
10
-55.6894265476706
20
12.099040286949418
42
-0.71613698871664366
10
-55.99428192809544
20
12.995352281501722
10
-53.262844463509644
20
15.096458023490824
42
0.53091586459730655
10
-53.363915851070828
20
16.750061680148995
42
-0.71613698871666265
10
-53.668771231495676
20
17.646373674701291
10
-50.937333766909859
20
19.747479416690371
42
0.53091586459731077
10
-51.038405154471036
20
21.401083073348552
42
-0.71613698871665732
10
-51.34326053489589
20
22.297395067900855
10
-48.611823070310081
20
24.398500809889949
42
0.53091586459731022
10
-48.712894457871272
20
26.052104466548119
42
-0.71613698871664389
10
-49.017749838296112
20
26.948416461100422
10
-46.286312373710302
20
29.049522203089495
42
0.53091586459731555
10
-46.387383761271479
20
30.70312585974769
42
-0.71613698871665377
10
-46.692239141696319
20
31.599437854299982
10
-43.514155247926467
20
34.044117772584464
42
-0.16540813067354582
10
-38.636469161128915
20
35.703125859747679
10
135.659304056113
20
35.703125859747679
42
-0.41421356237309359
10
142.909304056113
20
28.453125859747686
10
142.909304056113
20
27.458897490344661
42
-0.41421356237309498
10
126.409304056113
20
10.958897490344659
10
114.72575828774401
20
10.958897490344663
42
0.089939872170292021
10
111.21430433754222
20
10.32210693773035
10
74.610278428503477
20
-3.4053817074657977
42
-0.061536994752770552
10
72.22598536242613
20
-3.9784446165174332
42
0.26969544502852039
10
70.612526576914405
20
-5.1792640754631547
10
58.725456009072118
20
-32.974347321788557
42
-0.30022912296365417
10
49.531001197389266
20
-39.0421722600801
10
14.652958064475053
20
-39.042172260080108
42
0.31690792175067567
10
5.2361784939885396
20
-45.677018100035113
10
-10.269041786266509
20
-89.065592479357903
42
-0.31690792175067628
10
-14.035753614461113
20
-91.719530815339922
10
-45.504853782667524
20
-91.719530815339922
42
-0.52056705055174113
10
-49.263624265811146
20
-86.351450242037245
10
-22.367767813327482
20
-12.455691961945288
42
0.12322347716834349
10
-21.965101673454463
20
-8.5924463484396085
42
0.37339194315420826
10
-26.915231114804641
20
-4.2968741402523181
10
-54.885308779614746
20
-4.2968741402523225
42
-0.55753651583505159
10
-58.463017543614413
20
1.4919802417475121
10
-56.208605015363233
20
6.0008052982498983
42
0.55753651583505559
10
-57.103032206363153
20
7.4480188937498628
0
LWPOLYLINE
5
101
100
AcDbEntity
8
0
100
AcDbPolyline
90
21
70
1
43
0.0
10
46.036749346914547
20
-4.5026463248507751
42
-0.41421356237309581
10
41.03674934691454
20
0.49735367514922024
10
41.036749346914533
20
7.497353675149224
42
-0.4142135623730957
10
46.03674934691454
20
12.497353675149224
10
65.036749346914533
20
12.497353675149224
42
0.41421356237309342
10
67.036749346914519
20
14.497353675149222
10
67.036749346914519
20
25.31935367514922
10
37.15074934691453
20
25.31935367514922
10
-0.072250653085479399
20
20.216353675149211
10
-11.729846043258332
20
20.216353675149211
10
-18.111460006262693
20
6.0658183714618499
42
0.46364144020443637
10
-15.485334578112301
20
0.55368159297987385
10
1.3782163768422251
20
-3.8945779091309971
10
14.440552069626049
20
-4.9355352518470132
42
-0.49373334326458024
10
17.889505235179872
20
-10.268955619608223
10
11.782041809474535
20
-27.35959518005761
42
0.51870906611392442
10
16.490431594717776
20
-34.0421722600801
10
46.811971030615929
20
-34.042172260080093
42
0.30022912296365467
10
51.409198436457345
20
-31.008259790934321
10
59.765630457036458
20
-11.468733855705015
42
0.53819043480685658
10
55.16840305119505
20
-4.5026463248507786
0
CIRCLE
5
102
100
AcDbEntity
8
0
100
AcDbCircle
10
-19.035753614461115
20
-71.719530815339922
30
0
40
2.4999999999999991
0
CIRCLE
5
103
100
AcDbEntity
8
0
100
AcDbCircle
10
-24.035753614461122
20
0.28046918466008819
30
0
40
2.4999999999999991
0
CIRCLE
5
104
100
AcDbEntity
8
0
100
AcDbCircle
10
128.74930354374041
20
20.703125859747683
30
0
40
2.500000000000004
0
ENDSEC
0
SECTION
2
OBJECTS
0
DICTIONARY
5
C
100
AcDbDictionary
3
ACAD_GROUP
350
D
3
ACAD_MLINESTYLE
350
17
0
DICTIONARY
5
D
100
AcDbDictionary
0
DICTIONARY
5
1A
330
C
100
AcDbDictionary
0
DICTIONARY
5
17
100
AcDbDictionary
0
ENDSEC
0
EOF
