0
SECTION
2
HEADER
9
$INSUNITS
70
4
9
$ACADVER
1
AC1014
9
$HANDSEED
5
FFFF
0
ENDSEC
0
SECTION
2
TABLES
0
TABLE
2
VPORT
5
8
100
AcDbSymbolTable
0
ENDTAB
0
TABLE
2
LTYPE
5
5
100
AcDbSymbolTable
0
LTYPE
5
14
100
AcDbSymbolTableRecord
100
AcDbLinetypeTableRecord
2
BYBLOCK
70
0
0
LTYPE
5
15
100
AcDbSymbolTableRecord
100
AcDbLinetypeTableRecord
2
BYLAYER
70
0
0
ENDTAB
0
TABLE
2
LAYER
5
2
100
AcDbSymbolTable
70
2
0
LAYER
5
50
100
AcDbSymbolTableRecord
100
AcDbLayerTableRecord
2
0
70
0
6
CONTINUOUS
0
ENDTAB
0
TABLE
2
STYLE
5
3
100
AcDbSymbolTable
70
1
0
STYLE
5
11
100
AcDbSymbolTableRecord
100
AcDbTextStyleTableRecord
2
STANDARD
70
0
0
ENDTAB
0
TABLE
2
VIEW
5
6
100
AcDbSymbolTable
70
0
0
ENDTAB
0
TABLE
2
UCS
5
7
100
AcDbSymbolTable
70
0
0
ENDTAB
0
TABLE
2
APPID
5
9
100
AcDbSymbolTable
70
2
0
APPID
5
12
100
AcDbSymbolTableRecord
100
AcDbRegAppTableRecord
2
ACAD
70
0
0
ENDTAB
0
TABLE
2
DIMSTYLE
5
A
100
AcDbSymbolTable
70
1
0
ENDTAB
0
TABLE
2
BLOCK_RECORD
5
1
100
AcDbSymbolTable
70
1
0
BLOCK_RECORD
5
1F
100
AcDbSymbolTableRecord
100
AcDbBlockTableRecord
2
*MODEL_SPACE
0
BLOCK_RECORD
5
1B
100
AcDbSymbolTableRecord
100
AcDbBlockTableRecord
2
*PAPER_SPACE
0
ENDTAB
0
ENDSEC
0
SECTION
2
BLOCKS
0
BLOCK
5
20
100
AcDbEntity
100
AcDbBlockBegin
2
*MODEL_SPACE
0
ENDBLK
5
21
100
AcDbEntity
100
AcDbBlockEnd
0
BLOCK
5
1C
100
AcDbEntity
100
AcDbBlockBegin
2
*PAPER_SPACE
0
ENDBLK
5
1D
100
AcDbEntity
100
AcDbBlockEnd
0
ENDSEC
0
SECTION
2
ENTITIES
0
LWPOLYLINE
5
100
100
AcDbEntity
8
0
100
AcDbPolyline
90
51
70
1
43
0.0
10
-8.91030510368177
20
28.7452906013527
10
-6.1788676390959676
20
30.846396343341812
42
0.5309158645973282
10
-6.2799390266571722
20
32.5
42
-0.71613698871664977
10
-6.5847944070819908
20
33.396311994552256
10
-1.2500000000000004
20
37.500000000000007
42
-0.24739446285169467
10
3.4934164902525673
20
40
10
7.3613301429817488
20
40
10
7.3613301429817568
20
25
10
59.361330142981785
20
25.000000000000018
42
-0.41421356237309048
10
61.361330142981807
20
23.000000000000011
10
61.361330142981778
20
19.000000000000014
42
0.41421356237309992
10
63.361330142981778
20
17.000000000000011
10
67.361330142981814
20
17.000000000000014
42
0.41421356237309048
10
69.361330142981799
20
19.000000000000014
10
69.361330142981799
20
20.000000000000014
10
67.361330142981785
20
20.000000000000014
42
-0.41421356237309437
10
65.361330142981785
20
22.000000000000011
10
65.361330142981785
20
23.000000000000011
42
-0.41421356237309825
10
67.361330142981799
20
25.000000000000014
10
73.361330142981814
20
25.000000000000014
42
-0.4142135623730937
10
75.361330142981799
20
23.000000000000011
10
75.361330142981799
20
-8.5792088141789673
42
-0.15444982410485264
10
74.99723228716644
20
-9.729784398246391
42
0.27204256459409476
10
73.604107053095618
20
-26.737964834463877
42
-0.55291012684929242
10
71.802780352837786
20
-29.606999999999999
10
57.361330142981799
20
-29.606999999999992
10
46.436957506653435
20
6.4498022505880552
42
0.3304493234186634
10
41.651764361733363
20
10
10
7.3613301429817577
20
9.9999999999999982
10
7.3613301429817612
20
7.1390832555166259
42
-0.3467906302742384
10
3.3365381434772123
20
2.0340499201189086
10
-5.1386698570182388
20
0
10
-15.55040653093779
20
8.3266726846886741e-16
42
-0.55753651583505126
10
-18.010081306187558
20
3.9798373876248849
10
-17.703064179598691
20
4.5938716408026261
10
-17.778009383874391
20
4.5938716408026261
10
-16.302084501005538
20
7.8299276105102491
42
0.54588093519448944
10
-17.211921682761801
20
9.2448930340021835
10
-17.90749250965607
20
9.2448930340021818
42
-0.71613698871664921
10
-18.212347890080892
20
10.141205028554442
10
-15.480910425495082
20
12.242310770543554
42
0.53091586459732465
10
-15.581981813056291
20
13.895914427201742
42
-0.71613698871665488
10
-15.88683719348111
20
14.792226421754009
10
-13.155399728895301
20
16.893332163743114
42
0.53091586459732465
10
-13.25647111645651
20
18.546935820401309
42
-0.71613698871664622
10
-13.561326496881332
20
19.443247814953569
10
-10.829889032295521
20
21.544353556942674
42
0.53091586459733053
10
-10.93096041985673
20
23.197957213600873
42
-0.71613698871665776
10
-11.23581580028155
20
24.094269208153143
10
-8.5043783356957405
20
26.195374950142245
42
0.53091586459732698
10
-8.6054497232569496
20
27.848978606800443
42
-0.71613698871665665
0
ENDSEC
0
SECTION
2
OBJECTS
0
DICTIONARY
5
C
100
AcDbDictionary
3
ACAD_GROUP
350
D
3
ACAD_MLINESTYLE
350
17
0
DICTIONARY
5
D
100
AcDbDictionary
0
DICTIONARY
5
1A
330
C
100
AcDbDictionary
0
DICTIONARY
5
17
100
AcDbDictionary
0
ENDSEC
0
EOF
